PathFileType	4	(X/Y/Z)	TVC_20_BWA2_walk_RCNL2025.trc
DataRate	CameraRate	NumFrames	NumMarkers	Units	OrigDataRate	OrigDataStartFrame	OrigNumFrames
100	100	6	27	mm	100	1	221
Frame#	Time	R_Shoulder			L_Shoulder			C7			J_Notch			R_Elbow			L_Elbow			R_Wrist			L_Wrist			R_Asis			L_Asis			R_Psis			L_Psis			Sacral			Thoracic			Sternum			R_Thigh_Lateral			R_Knee_Lateral			R_Shank_Lateral			R_Ankle_Lateral			R_Heel			R_Toe			L_Thigh_Lateral			L_Knee_Lateral			L_Shank_Lateral			L_Ankle_Lateral			L_Heel			L_Toe		
		X1	Y1	Z1	X2	Y2	Z2	X3	Y3	Z3	X4	Y4	Z4	X5	Y5	Z5	X6	Y6	Z6	X7	Y7	Z7	X8	Y8	Z8	X9	Y9	Z9	X10	Y10	Z10	X11	Y11	Z11	X12	Y12	Z12	X13	Y13	Z13	X14	Y14	Z14	X15	Y15	Z15	X16	Y16	Z16	X17	Y17	Z17	X18	Y18	Z18	X19	Y19	Z19	X20	Y20	Z20	X21	Y21	Z21	X22	Y22	Z22	X23	Y23	Z23	X24	Y24	Z24	X25	Y25	Z25	X26	Y26	Z26	X27	Y27	Z27
1	0.00000000	-711.887756	1362.152466	105.879944	-760.135742	1390.088867	-256.236481	-769.025940	1428.628784	-61.559685	-651.923279	1294.279541	-80.407814	-811.150146	1064.259766	206.374008	-747.077209	1089.460083	-386.940887	-680.867828	836.148438	208.614449	-540.691071	932.874054	-348.704315	-698.912598	966.058655	53.352779	-720.553833	984.017456	-226.110046	-857.141479	968.584167	-24.180490	-878.181030	969.496826	-109.798225	-867.661255	969.040497	-66.989358	-885.655151	1207.248413	-68.973770	-645.471558	1151.185425	-95.519539	-634.307617	653.526184	127.381371	-535.489258	484.336578	49.688858	-522.089417	304.695831	107.139076	-435.480164	85.518822	36.296967	-470.840637	49.491966	-15.306641	-283.576416	89.421341	23.970787	-845.048035	633.264587	-294.135498	-867.903259	466.888611	-217.046631	-963.384277	310.090363	-270.956299	-1074.473877	93.311127	-185.092819	-1121.571411	95.255768	-143.774033	-943.707947	37.354931	-162.640015
2	0.01000000	-697.897339	1360.101562	108.796127	-746.862976	1389.669800	-253.285263	-755.300964	1427.351196	-58.223110	-637.765869	1293.490112	-77.933876	-796.266357	1061.373047	207.814926	-736.523682	1089.719727	-385.199585	-666.712708	832.826294	209.594894	-529.684113	933.310181	-348.058197	-683.920959	964.852722	54.285316	-705.681335	982.748474	-225.163162	-842.271729	967.357178	-23.245419	-863.301758	968.236145	-108.859306	-852.786743	967.796661	-66.052362	-871.358215	1205.713623	-67.188156	-630.782410	1150.567627	-93.698517	-617.152161	654.048584	127.973495	-519.215454	484.146881	50.895527	-508.893768	303.649292	107.561890	-428.301453	83.307358	36.390598	-464.456451	48.704678	-15.220430	-276.744080	83.663712	23.909369	-832.030334	632.604431	-293.684570	-854.876343	465.405548	-217.472931	-954.227356	310.813416	-271.056976	-1071.623779	97.470650	-185.889465	-1118.568237	101.315292	-144.697235	-943.612305	37.094364	-162.650726
3	0.02000000	-683.790405	1358.267700	111.827866	-733.494202	1389.536865	-250.243698	-741.422485	1426.360352	-54.736618	-623.464966	1293.017700	-75.364914	-781.088318	1058.633179	209.237045	-726.526550	1090.275024	-383.326721	-652.274658	829.645905	210.577248	-519.412476	933.755219	-347.559967	-668.868042	964.060120	55.322067	-690.532349	981.697205	-224.066742	-827.298767	966.504456	-22.383284	-848.240417	967.220825	-108.075981	-837.769592	966.862640	-65.229632	-856.928284	1204.464111	-65.410149	-615.936584	1150.274536	-91.776421	-599.887756	655.023315	128.638092	-502.961273	484.212616	52.291176	-496.051788	302.833496	108.181122	-422.563385	81.099342	36.553093	-459.742065	48.118256	-14.983649	-271.397919	77.316803	23.537201	-817.984009	631.886353	-293.196808	-840.570068	463.818878	-217.977280	-943.974792	311.644806	-271.207092	-1067.940063	102.258003	-186.757599	-1114.587646	108.236145	-145.701828	-943.442627	36.835205	-162.638672
4	0.03000000	-669.588928	1356.672485	114.950562	-720.040894	1389.698853	-247.129242	-727.408508	1425.662842	-51.129028	-609.045776	1292.865845	-72.719383	-765.638367	1056.073242	210.628983	-717.030212	1091.147095	-381.340607	-637.553802	826.652924	211.555984	-509.857971	934.199921	-347.211960	-653.778870	963.691895	56.453609	-675.163391	980.882751	-222.820206	-812.253601	966.027893	-21.587151	-833.036743	966.439209	-107.442451	-822.645172	966.233551	-64.514801	-842.392212	1203.509521	-63.639168	-600.964661	1150.307739	-89.769928	-582.725098	656.349487	129.406296	-486.872192	484.479309	53.864388	-483.505829	302.261200	109.022949	-417.968231	79.013535	36.802227	-456.343994	47.774696	-14.579645	-267.230865	70.713943	22.891037	-802.821960	631.075073	-292.691132	-824.892944	462.116272	-218.563980	-932.516541	312.587158	-271.404327	-1063.250610	107.705360	-187.658875	-1109.431885	116.045464	-146.743362	-943.127869	36.634155	-162.599503
5	0.04000000	-655.320496	1355.332397	118.135963	-706.520691	1390.158081	-243.962585	-713.284180	1425.257080	-47.434807	-594.538940	1293.029297	-70.019653	-749.945618	1053.723145	211.984390	-707.966248	1092.349854	-379.261536	-622.550842	823.893097	212.524635	-500.986481	934.634094	-347.013077	-638.682800	963.746216	57.668617	-659.644165	980.316284	-221.429184	-797.172546	965.919189	-20.844124	-817.739868	965.876099	-106.940155	-807.456207	965.897644	-63.892139	-827.781738	1202.851685	-61.874367	-585.903625	1150.659302	-87.700348	-565.857910	657.920166	130.303467	-471.093445	484.883606	55.592113	-471.225677	301.925293	110.094749	-414.259094	77.146004	37.139397	-453.943207	47.688122	-14.012483	-263.976410	64.178215	22.023035	-786.487793	630.142090	-292.186218	-807.780151	460.294861	-219.229416	-919.753296	313.643341	-271.640808	-1057.382935	113.829407	-188.550980	-1102.911255	124.741257	-147.773132	-942.560181	36.571720	-162.531601
6	0.05000000	-641.016296	1354.257935	121.352921	-692.956177	1390.909424	-240.767532	-699.080811	1425.133911	-43.693027	-579.979370	1293.493896	-67.291954	-734.045166	1051.608765	213.302063	-699.256409	1093.887695	-377.112549	-607.267578	821.410858	213.475769	-492.748596	935.047516	-346.959106	-623.612854	964.208069	58.954868	-644.053528	979.999451	-219.906082	-782.095764	966.160828	-20.135683	-802.406433	965.514771	-106.538216	-792.251099	965.837799	-63.336949	-813.132141	1202.485718	-60.114796	-570.795654	1151.312378	-85.593391	-549.457520	659.627502	131.346893	-455.765594	485.357056	57.441139	-459.220917	301.797516	111.382011	-411.228241	75.562141	37.549824	-452.268250	47.844147	-13.306700	-261.416412	57.996105	20.996218	-768.964172	629.070435	-291.697540	-789.200928	458.364777	-219.960266	-905.602844	314.816956	-271.903137	-1050.175049	120.627571	-189.391617	-1094.857666	134.286362	-148.742447	-941.588074	36.750832	-162.436554
